<svg width="16" height="16" viewBox="0 0 16 16" fill="none" xmlns="http://www.w3.org/2000/svg">
<path fill-rule="evenodd" clip-rule="evenodd" d="M8 1C6.93913 1 5.92172 1.42143 5.17157 2.17157C4.42143 2.92172 4 3.93913 4 5C4 6.06087 4.42143 7.07828 5.17157 7.82843C5.92172 8.57857 6.93913 9 8 9C9.06087 9 10.0783 8.57857 10.8284 7.82843C11.5786 7.07828 12 6.06087 12 5C12 3.93913 11.5786 2.92172 10.8284 2.17157C10.0783 1.42143 9.06087 1 8 1V1ZM3 5C3.00001 4.03241 3.28077 3.08562 3.80823 2.27444C4.33568 1.46326 5.08717 0.822543 5.97156 0.430005C6.85594 0.0374668 7.83523 -0.0900327 8.79064 0.0629699C9.74605 0.215973 10.6365 0.642904 11.3541 1.29198C12.0717 1.94107 12.5855 2.78441 12.8333 3.71974C13.0811 4.65506 13.0521 5.64219 12.75 6.56139C12.4478 7.48059 11.8855 8.29238 11.1311 8.8983C10.3767 9.50422 9.46274 9.87824 8.5 9.975V12H10.5C10.6326 12 10.7598 12.0527 10.8536 12.1464C10.9473 12.2402 11 12.3674 11 12.5C11 12.6326 10.9473 12.7598 10.8536 12.8536C10.7598 12.9473 10.6326 13 10.5 13H8.5V15.5C8.5 15.6326 8.44732 15.7598 8.35355 15.8536C8.25979 15.9473 8.13261 16 8 16C7.86739 16 7.74021 15.9473 7.64645 15.8536C7.55268 15.7598 7.5 15.6326 7.5 15.5V13H5.5C5.36739 13 5.24021 12.9473 5.14645 12.8536C5.05268 12.7598 5 12.6326 5 12.5C5 12.3674 5.05268 12.2402 5.14645 12.1464C5.24021 12.0527 5.36739 12 5.5 12H7.5V9.975C6.26668 9.85105 5.12338 9.27341 4.29188 8.35414C3.46038 7.43488 2.99998 6.23953 3 5V5Z" fill="#F52992"/>
</svg>
